<svg xmlns="http://www.w3.org/2000/svg" xmlns:xlink="http://www.w3.org/1999/xlink" width="375" zoomAndPan="magnify" viewBox="0 0 375 374.999991" height="374.999991" preserveAspectRatio="xMidYMid meet" version="1.0"><defs><g/></defs><g fill="rgb(0%, 0%, 0%)" fill-opacity="1"><g transform="translate(135.028846, 219.127896)"><g><path d="M 27.785156 -65.101562 L 27.785156 -64.828125 L 29.78125 -64.828125 L 29.78125 -10.804688 C 29.78125 -7.808594 28.417969 -4.992188 26.238281 -2.996094 C 24.332031 -1.269531 21.882812 -0.273438 19.339844 -0.273438 C 16.796875 -0.273438 14.34375 -1.269531 12.4375 -2.996094 C 10.167969 -4.992188 8.898438 -7.808594 8.808594 -10.804688 L 8.808594 -21.882812 L 3.179688 -21.882812 L 3.179688 -16.253906 C 3.179688 -11.621094 5.175781 -7.261719 8.625 -4.085938 C 11.53125 -1.453125 15.34375 0 19.339844 0.0898438 C 23.242188 0 27.058594 -1.453125 30.054688 -4.085938 C 33.503906 -7.261719 35.5 -11.710938 35.5 -16.433594 L 35.5 -64.828125 L 37.5 -64.828125 L 37.5 -65.101562 Z M 27.785156 -65.101562 "/></g></g></g><g fill="rgb(0%, 0%, 0%)" fill-opacity="1"><g transform="translate(172.058153, 219.127896)"><g><path d="M 52.296875 -4.8125 C 47.394531 -1.90625 41.855469 -0.363281 36.046875 -0.273438 L 35.410156 -0.273438 C 28.328125 -0.363281 21.609375 -3.8125 16.617188 -9.804688 C 11.621094 -15.890625 8.808594 -23.96875 8.808594 -32.59375 C 8.808594 -41.128906 11.621094 -49.210938 16.617188 -55.292969 C 21.609375 -61.378906 28.328125 -64.738281 35.410156 -64.828125 L 36.136719 -64.828125 C 41.675781 -64.738281 47.03125 -62.648438 51.570312 -58.652344 C 56.019531 -54.839844 59.289062 -49.484375 61.105469 -43.308594 L 61.105469 -43.21875 L 66.550781 -43.21875 L 66.460938 -43.398438 C 65.371094 -46.578125 63.828125 -49.484375 61.832031 -52.117188 C 59.925781 -54.75 57.5625 -57.019531 54.929688 -58.925781 C 49.390625 -62.921875 42.855469 -65.101562 36.136719 -65.191406 L 35.410156 -65.191406 C 31.050781 -65.101562 26.785156 -64.191406 22.789062 -62.46875 C 18.976562 -60.832031 15.527344 -58.472656 12.53125 -55.476562 C 9.625 -52.480469 7.261719 -49.03125 5.628906 -45.214844 C 3.996094 -41.222656 3.179688 -36.953125 3.179688 -32.59375 C 3.179688 -28.144531 3.996094 -23.96875 5.628906 -19.976562 C 7.261719 -16.070312 9.625 -12.621094 12.53125 -9.625 C 15.527344 -6.628906 18.976562 -4.265625 22.789062 -2.632812 C 26.785156 -0.90625 31.050781 0 35.410156 0 L 36.136719 0 C 41.855469 0 47.578125 -1.632812 52.480469 -4.539062 C 57.292969 -7.445312 61.285156 -11.53125 64.011719 -16.34375 L 63.828125 -16.523438 C 61.015625 -11.710938 57.109375 -7.71875 52.296875 -4.8125 Z M 52.296875 -4.8125 "/></g></g></g></svg>