<svg xmlns="http://www.w3.org/2000/svg" xmlns:xlink="http://www.w3.org/1999/xlink" width="375" zoomAndPan="magnify" viewBox="0 0 375 374.999991" height="374.999991" preserveAspectRatio="xMidYMid meet" version="1.0"><defs><g><g id="id1"/><g id="id2"/><g id="id3"/><g id="id4"/><g id="id5"/><g id="id6"/><g id="id7"/><g id="id8"/><g id="id9"/><g id="id10"/><g id="id11"/><g id="id12"/><g id="id13"/><g id="id14"/><g id="id15"/><g id="id16"/><g id="id17"/><g id="id18"/><g id="id19"/><g id="id20"/></g><clipPath id="id21"><path d="M 62.894531 62.894531 L 311.894531 62.894531 L 311.894531 311.894531 L 62.894531 311.894531 Z M 62.894531 62.894531 " clip-rule="nonzero"/></clipPath></defs><g clip-path="url(#id21)"><path fill="rgb(0%, 0%, 0%)" d="M 187.382812 311.871094 C 154.128906 311.871094 122.867188 298.921875 99.355469 275.410156 C 75.84375 251.898438 62.894531 220.632812 62.894531 187.382812 C 62.894531 154.128906 75.84375 122.867188 99.355469 99.355469 C 122.867188 75.84375 154.128906 62.894531 187.382812 62.894531 C 220.632812 62.894531 251.898438 75.84375 275.410156 99.355469 C 298.921875 122.867188 311.871094 154.128906 311.871094 187.382812 C 311.871094 220.632812 298.921875 251.898438 275.410156 275.410156 C 251.898438 298.921875 220.632812 311.871094 187.382812 311.871094 Z M 187.382812 63.917969 C 154.402344 63.917969 123.398438 76.761719 100.078125 100.078125 C 76.761719 123.398438 63.917969 154.402344 63.917969 187.382812 C 63.917969 220.359375 76.761719 251.367188 100.078125 274.683594 C 123.398438 298.003906 154.402344 310.847656 187.382812 310.847656 C 220.359375 310.847656 251.367188 298.003906 274.683594 274.683594 C 298.003906 251.367188 310.847656 220.359375 310.847656 187.382812 C 310.847656 154.402344 298.003906 123.398438 274.683594 100.078125 C 251.367188 76.761719 220.359375 63.917969 187.382812 63.917969 Z M 187.382812 63.917969 " fill-opacity="1" fill-rule="nonzero"/></g><path fill="rgb(0%, 0%, 0%)" d="M 187.382812 269.289062 C 142.21875 269.289062 105.472656 232.546875 105.472656 187.382812 C 105.472656 142.21875 142.21875 105.472656 187.382812 105.472656 C 232.546875 105.472656 269.289062 142.21875 269.289062 187.382812 C 269.289062 232.546875 232.546875 269.289062 187.382812 269.289062 Z M 187.382812 106.5 C 142.785156 106.5 106.5 142.785156 106.5 187.382812 C 106.5 231.980469 142.785156 268.265625 187.382812 268.265625 C 231.980469 268.265625 268.265625 231.980469 268.265625 187.382812 C 268.265625 142.785156 231.980469 106.5 187.382812 106.5 Z M 187.382812 106.5 " fill-opacity="1" fill-rule="nonzero"/><path fill="rgb(0%, 0%, 0%)" d="M 87.171875 187.382812 C 87.171875 189.011719 85.851562 190.332031 84.222656 190.332031 C 82.59375 190.332031 81.273438 189.011719 81.273438 187.382812 C 81.273438 185.753906 82.59375 184.433594 84.222656 184.433594 C 85.851562 184.433594 87.171875 185.753906 87.171875 187.382812 Z M 290.542969 184.433594 C 288.914062 184.433594 287.589844 185.753906 287.589844 187.382812 C 287.589844 189.011719 288.914062 190.332031 290.542969 190.332031 C 292.171875 190.332031 293.492188 189.011719 293.492188 187.382812 C 293.492188 185.753906 292.171875 184.433594 290.542969 184.433594 Z M 290.542969 184.433594 " fill-opacity="1" fill-rule="nonzero"/><g fill="rgb(0%, 0%, 0%)" fill-opacity="1"><g transform="translate(125.182419, 114.035498)"><g><path d="M 1.78125 -1.390625 L 1.1875 -0.9375 L -5.40625 -9.375 L -0.78125 -12.984375 L -0.359375 -12.453125 L -4.390625 -9.296875 L -1.59375 -5.703125 L 2.21875 -8.6875 L 2.640625 -8.15625 L -1.171875 -5.171875 Z M 1.78125 -1.390625 "/></g></g></g><g fill="rgb(0%, 0%, 0%)" fill-opacity="1"><g transform="translate(136.911415, 105.491046)"><g><path d="M -1.59375 -11.34375 C -0.84375 -11.757812 -0.175781 -12.023438 0.40625 -12.140625 C 0.988281 -12.265625 1.507812 -12.207031 1.96875 -11.96875 C 2.425781 -11.738281 2.828125 -11.304688 3.171875 -10.671875 C 3.429688 -10.203125 3.570312 -9.742188 3.59375 -9.296875 C 3.613281 -8.859375 3.53125 -8.445312 3.34375 -8.0625 C 3.164062 -7.675781 2.910156 -7.320312 2.578125 -7 L 7.5 -4.15625 L 6.71875 -3.734375 L 2.0625 -6.46875 L -0.265625 -5.171875 L 1.984375 -1.09375 L 1.328125 -0.734375 L -3.859375 -10.09375 Z M -1.34375 -10.734375 L -2.890625 -9.875 L -0.59375 -5.75 L 1.265625 -6.78125 C 2.023438 -7.207031 2.515625 -7.722656 2.734375 -8.328125 C 2.960938 -8.929688 2.882812 -9.582031 2.5 -10.28125 C 2.082031 -11.03125 1.566406 -11.421875 0.953125 -11.453125 C 0.347656 -11.492188 -0.414062 -11.253906 -1.34375 -10.734375 Z M -1.34375 -10.734375 "/></g></g></g><g fill="rgb(0%, 0%, 0%)" fill-opacity="1"><g transform="translate(150.95911, 98.272924)"><g><path d="M 8.21875 -8.5 C 8.476562 -7.71875 8.625 -6.972656 8.65625 -6.265625 C 8.6875 -5.566406 8.585938 -4.921875 8.359375 -4.328125 C 8.140625 -3.734375 7.789062 -3.210938 7.3125 -2.765625 C 6.832031 -2.316406 6.21875 -1.96875 5.46875 -1.71875 C 4.707031 -1.457031 4 -1.351562 3.34375 -1.40625 C 2.6875 -1.46875 2.09375 -1.664062 1.5625 -2 C 1.03125 -2.34375 0.5625 -2.800781 0.15625 -3.375 C -0.25 -3.945312 -0.585938 -4.617188 -0.859375 -5.390625 C -1.203125 -6.421875 -1.332031 -7.382812 -1.25 -8.28125 C -1.175781 -9.175781 -0.867188 -9.960938 -0.328125 -10.640625 C 0.203125 -11.316406 0.960938 -11.828125 1.953125 -12.171875 C 2.921875 -12.492188 3.804688 -12.554688 4.609375 -12.359375 C 5.421875 -12.171875 6.132812 -11.75 6.75 -11.09375 C 7.363281 -10.4375 7.851562 -9.570312 8.21875 -8.5 Z M -0.109375 -5.65625 C 0.203125 -4.738281 0.609375 -3.976562 1.109375 -3.375 C 1.617188 -2.78125 2.222656 -2.382812 2.921875 -2.1875 C 3.617188 -2 4.394531 -2.050781 5.25 -2.34375 C 6.125 -2.632812 6.773438 -3.066406 7.203125 -3.640625 C 7.628906 -4.222656 7.859375 -4.90625 7.890625 -5.6875 C 7.929688 -6.46875 7.796875 -7.316406 7.484375 -8.234375 C 6.992188 -9.671875 6.289062 -10.679688 5.375 -11.265625 C 4.46875 -11.859375 3.398438 -11.945312 2.171875 -11.53125 C 1.316406 -11.238281 0.664062 -10.800781 0.21875 -10.21875 C -0.21875 -9.632812 -0.457031 -8.953125 -0.5 -8.171875 C -0.550781 -7.398438 -0.421875 -6.5625 -0.109375 -5.65625 Z M -0.109375 -5.65625 "/></g></g></g><g fill="rgb(0%, 0%, 0%)" fill-opacity="1"><g transform="translate(168.467252, 92.991877)"><g><path d="M 9.203125 -1.328125 L 8.4375 -1.21875 L 0.84375 -9.6875 L 0.8125 -9.6875 C 0.851562 -9.425781 0.894531 -9.160156 0.9375 -8.890625 C 0.988281 -8.628906 1.035156 -8.351562 1.078125 -8.0625 C 1.128906 -7.78125 1.175781 -7.488281 1.21875 -7.1875 L 2.21875 -0.3125 L 1.5 -0.21875 L -0.03125 -10.8125 L 0.734375 -10.921875 L 8.3125 -2.46875 L 8.34375 -2.484375 C 8.3125 -2.703125 8.269531 -2.945312 8.21875 -3.21875 C 8.175781 -3.488281 8.128906 -3.769531 8.078125 -4.0625 C 8.035156 -4.363281 7.992188 -4.648438 7.953125 -4.921875 L 6.953125 -11.8125 L 7.671875 -11.921875 Z M 9.203125 -1.328125 "/></g></g></g><g fill="rgb(0%, 0%, 0%)" fill-opacity="1"><g transform="translate(186.099115, 91.16284)"><g><path d="M 4.3125 0.109375 L 3.546875 0.09375 L 3.796875 -9.9375 L 0.328125 -10.03125 L 0.34375 -10.703125 L 8.046875 -10.5 L 8.03125 -9.828125 L 4.5625 -9.921875 Z M 4.3125 0.109375 "/></g></g></g><g fill="rgb(0%, 0%, 0%)" fill-opacity="1"><g transform="translate(211.802516, 94.225385)"><g><path d="M 7.03125 2.140625 L 1.453125 0.4375 L 4.578125 -9.796875 L 10.15625 -8.09375 L 9.953125 -7.453125 L 5.09375 -8.9375 L 3.921875 -5.046875 L 8.515625 -3.640625 L 8.3125 -2.984375 L 3.71875 -4.390625 L 2.375 0 L 7.234375 1.484375 Z M 7.03125 2.140625 "/></g></g></g><g fill="rgb(0%, 0%, 0%)" fill-opacity="1"><g transform="translate(226.188284, 99.117265)"><g><path d="M 8.296875 4.1875 L 7.625 3.84375 L 6.234375 -7.46875 L 6.203125 -7.46875 C 6.085938 -7.238281 5.972656 -7 5.859375 -6.75 C 5.742188 -6.507812 5.625 -6.257812 5.5 -6 C 5.382812 -5.738281 5.257812 -5.472656 5.125 -5.203125 L 2 1 L 1.359375 0.6875 L 6.171875 -8.875 L 6.84375 -8.53125 L 8.234375 2.734375 L 8.265625 2.75 C 8.367188 2.550781 8.476562 2.320312 8.59375 2.0625 C 8.707031 1.8125 8.828125 1.550781 8.953125 1.28125 C 9.085938 1.019531 9.21875 0.769531 9.34375 0.53125 L 12.46875 -5.703125 L 13.109375 -5.375 Z M 8.296875 4.1875 "/></g></g></g><g fill="rgb(0%, 0%, 0%)" fill-opacity="1"><g transform="translate(241.668692, 107.628207)"><g><path d="M 11 1.484375 C 10.269531 2.441406 9.492188 3.113281 8.671875 3.5 C 7.847656 3.882812 6.976562 3.988281 6.0625 3.8125 C 5.15625 3.644531 4.21875 3.195312 3.25 2.46875 L 1.203125 0.921875 L 7.671875 -7.609375 L 9.984375 -5.875 C 10.890625 -5.175781 11.53125 -4.429688 11.90625 -3.640625 C 12.28125 -2.859375 12.394531 -2.035156 12.25 -1.171875 C 12.101562 -0.316406 11.6875 0.566406 11 1.484375 Z M 10.34375 1.015625 C 10.957031 0.203125 11.335938 -0.570312 11.484375 -1.3125 C 11.640625 -2.0625 11.546875 -2.773438 11.203125 -3.453125 C 10.859375 -4.140625 10.269531 -4.800781 9.4375 -5.4375 L 7.875 -6.625 L 2.21875 0.84375 L 3.625 1.90625 C 4.90625 2.875 6.101562 3.285156 7.21875 3.140625 C 8.34375 2.992188 9.382812 2.285156 10.34375 1.015625 Z M 10.34375 1.015625 "/></g></g></g><g fill="rgb(0%, 0%, 0%)" fill-opacity="1"><g transform="translate(270.863948, 235.220017)"><g><path d="M 1.375 16.796875 L -5.765625 8.296875 L -5.34375 7.703125 L 2.609375 10.4375 C 2.773438 10.488281 2.929688 10.535156 3.078125 10.578125 C 3.222656 10.628906 3.363281 10.679688 3.5 10.734375 C 3.644531 10.796875 3.773438 10.847656 3.890625 10.890625 C 4.003906 10.929688 4.113281 10.972656 4.21875 11.015625 C 4.144531 10.929688 4.066406 10.847656 3.984375 10.765625 C 3.898438 10.691406 3.816406 10.609375 3.734375 10.515625 C 3.648438 10.421875 3.5625 10.316406 3.46875 10.203125 C 3.382812 10.097656 3.296875 9.992188 3.203125 9.890625 L -2.28125 3.28125 L -1.859375 2.6875 L 8.578125 6.421875 L 8.140625 7.0625 L 0.78125 4.40625 C 0.582031 4.332031 0.394531 4.257812 0.21875 4.1875 C 0.0507812 4.125 -0.109375 4.0625 -0.265625 4 C -0.429688 3.945312 -0.585938 3.890625 -0.734375 3.828125 C -0.890625 3.765625 -1.039062 3.695312 -1.1875 3.625 C -1.082031 3.738281 -0.96875 3.859375 -0.84375 3.984375 C -0.726562 4.109375 -0.613281 4.238281 -0.5 4.375 C -0.382812 4.507812 -0.265625 4.644531 -0.140625 4.78125 C -0.015625 4.925781 0.113281 5.078125 0.25 5.234375 L 5.21875 11.25 L 4.78125 11.890625 L -2.65625 9.359375 C -2.863281 9.285156 -3.054688 9.210938 -3.234375 9.140625 C -3.421875 9.078125 -3.59375 9.015625 -3.75 8.953125 C -3.914062 8.890625 -4.070312 8.828125 -4.21875 8.765625 C -4.375 8.703125 -4.523438 8.644531 -4.671875 8.59375 C -4.515625 8.738281 -4.359375 8.890625 -4.203125 9.046875 C -4.054688 9.203125 -3.90625 9.367188 -3.75 9.546875 C -3.59375 9.734375 -3.421875 9.9375 -3.234375 10.15625 L 1.8125 16.15625 Z M 1.375 16.796875 "/></g></g></g><g fill="rgb(0%, 0%, 0%)" fill-opacity="1"><g transform="translate(258.639655, 251.312576)"><g><path d="M -5.234375 5.171875 L -1.078125 1.0625 L 6.453125 8.671875 L 2.296875 12.78125 L 1.828125 12.296875 L 5.453125 8.71875 L 2.59375 5.828125 L -0.828125 9.21875 L -1.3125 8.734375 L 2.109375 5.34375 L -1.125 2.078125 L -4.75 5.65625 Z M -5.234375 5.171875 "/></g></g></g><g fill="rgb(0%, 0%, 0%)" fill-opacity="1"><g transform="translate(247.459653, 261.648588)"><g><path d="M 4.953125 9.609375 L 2.5625 11.3125 C 1.476562 12.070312 0.570312 12.457031 -0.15625 12.46875 C -0.882812 12.488281 -1.515625 12.125 -2.046875 11.375 C -2.285156 11.050781 -2.4375 10.707031 -2.5 10.34375 C -2.570312 9.976562 -2.546875 9.613281 -2.421875 9.25 C -2.296875 8.882812 -2.078125 8.535156 -1.765625 8.203125 L -1.796875 8.171875 C -2.273438 8.410156 -2.722656 8.546875 -3.140625 8.578125 C -3.566406 8.609375 -3.953125 8.523438 -4.296875 8.328125 C -4.640625 8.140625 -4.953125 7.847656 -5.234375 7.453125 C -5.640625 6.878906 -5.84375 6.3125 -5.84375 5.75 C -5.84375 5.195312 -5.671875 4.671875 -5.328125 4.171875 C -4.992188 3.671875 -4.523438 3.207031 -3.921875 2.78125 L -1.234375 0.875 Z M 1.59375 6.171875 L -0.34375 7.546875 C -1.164062 8.117188 -1.65625 8.675781 -1.8125 9.21875 C -1.976562 9.769531 -1.863281 10.328125 -1.46875 10.890625 C -1.050781 11.472656 -0.554688 11.75 0.015625 11.71875 C 0.585938 11.695312 1.3125 11.378906 2.1875 10.765625 L 3.96875 9.5 Z M 1.21875 5.625 L -1.453125 1.859375 L -3.515625 3.3125 C -4.316406 3.882812 -4.804688 4.476562 -4.984375 5.09375 C -5.171875 5.71875 -5.03125 6.359375 -4.5625 7.015625 C -4.257812 7.441406 -3.914062 7.71875 -3.53125 7.84375 C -3.15625 7.976562 -2.734375 7.96875 -2.265625 7.8125 C -1.796875 7.664062 -1.28125 7.394531 -0.71875 7 Z M 1.21875 5.625 "/></g></g></g><g fill="rgb(0%, 0%, 0%)" fill-opacity="1"><g transform="translate(223.813874, 275.344618)"><g><path d="M -7.390625 8.265625 C -7.773438 7.140625 -7.898438 6.125 -7.765625 5.21875 C -7.628906 4.320312 -7.234375 3.539062 -6.578125 2.875 C -5.921875 2.21875 -5.015625 1.695312 -3.859375 1.3125 L -1.4375 0.484375 L 2 10.625 L -0.734375 11.5625 C -1.816406 11.925781 -2.789062 12.039062 -3.65625 11.90625 C -4.519531 11.78125 -5.265625 11.414062 -5.890625 10.8125 C -6.523438 10.207031 -7.023438 9.359375 -7.390625 8.265625 Z M -6.640625 7.984375 C -6.316406 8.941406 -5.882812 9.691406 -5.34375 10.234375 C -4.8125 10.785156 -4.164062 11.113281 -3.40625 11.21875 C -2.644531 11.332031 -1.769531 11.21875 -0.78125 10.875 L 1.09375 10.25 L -1.921875 1.375 L -3.59375 1.9375 C -5.125 2.457031 -6.140625 3.21875 -6.640625 4.21875 C -7.148438 5.226562 -7.148438 6.484375 -6.640625 7.984375 Z M -6.640625 7.984375 "/></g></g></g><g fill="rgb(0%, 0%, 0%)" fill-opacity="1"><g transform="translate(207.039076, 280.31641)"><g><path d="M -7.265625 1.15625 L -1.5 0.234375 L 0.1875 10.796875 L -5.578125 11.71875 L -5.6875 11.0625 L -0.65625 10.265625 L -1.296875 6.25 L -6.046875 7 L -6.15625 6.328125 L -1.40625 5.578125 L -2.125 1.03125 L -7.15625 1.828125 Z M -7.265625 1.15625 "/></g></g></g><g fill="rgb(0%, 0%, 0%)" fill-opacity="1"><g transform="translate(191.909371, 282.174917)"><g><path d="M -8.671875 10.6875 L -4.703125 -0.015625 L -3.953125 -0.015625 L -0.015625 10.703125 L -0.8125 10.703125 L -3.71875 2.765625 C -3.800781 2.535156 -3.878906 2.3125 -3.953125 2.09375 C -4.023438 1.875 -4.09375 1.664062 -4.15625 1.46875 C -4.21875 1.269531 -4.273438 1.078125 -4.328125 0.890625 C -4.378906 1.078125 -4.429688 1.265625 -4.484375 1.453125 C -4.546875 1.648438 -4.613281 1.859375 -4.6875 2.078125 C -4.769531 2.296875 -4.851562 2.53125 -4.9375 2.78125 L -7.875 10.6875 Z M -8.671875 10.6875 "/></g></g></g><g fill="rgb(0%, 0%, 0%)" fill-opacity="1"><g transform="translate(176.30566, 281.570254)"><g><path d="M -7.265625 -1.1875 L -1.5 -0.25 L -3.21875 10.3125 L -8.984375 9.375 L -8.890625 8.71875 L -3.859375 9.546875 L -3.203125 5.53125 L -7.953125 4.75 L -7.84375 4.078125 L -3.09375 4.859375 L -2.34375 0.3125 L -7.375 -0.515625 Z M -7.265625 -1.1875 "/></g></g></g><g fill="rgb(0%, 0%, 0%)" fill-opacity="1"><g transform="translate(161.340995, 278.553132)"><g><path d="M -1.4375 -0.46875 L -4.78125 9.703125 L -5.5 9.46875 L -2.375 -0.046875 L -7.21875 -1.640625 L -7 -2.296875 Z M -1.4375 -0.46875 "/></g></g></g><g fill="rgb(0%, 0%, 0%)" fill-opacity="1"><g transform="translate(147.605381, 273.593396)"><g><path d="M -11.796875 -0.171875 C -11.410156 -0.898438 -10.972656 -1.515625 -10.484375 -2.015625 C -10.003906 -2.523438 -9.472656 -2.898438 -8.890625 -3.140625 C -8.304688 -3.390625 -7.6875 -3.488281 -7.03125 -3.4375 C -6.375 -3.394531 -5.695312 -3.1875 -5 -2.8125 C -4.289062 -2.4375 -3.734375 -1.988281 -3.328125 -1.46875 C -2.921875 -0.957031 -2.65625 -0.394531 -2.53125 0.21875 C -2.414062 0.84375 -2.425781 1.5 -2.5625 2.1875 C -2.707031 2.882812 -2.972656 3.597656 -3.359375 4.328125 C -3.859375 5.285156 -4.460938 6.039062 -5.171875 6.59375 C -5.890625 7.144531 -6.675781 7.457031 -7.53125 7.53125 C -8.382812 7.601562 -9.273438 7.394531 -10.203125 6.90625 C -11.097656 6.425781 -11.753906 5.820312 -12.171875 5.09375 C -12.585938 4.375 -12.757812 3.566406 -12.6875 2.671875 C -12.625 1.773438 -12.328125 0.828125 -11.796875 -0.171875 Z M -4.03125 3.9375 C -3.582031 3.09375 -3.316406 2.28125 -3.234375 1.5 C -3.148438 0.726562 -3.269531 0.0195312 -3.59375 -0.625 C -3.925781 -1.269531 -4.492188 -1.804688 -5.296875 -2.234375 C -6.109375 -2.660156 -6.875 -2.832031 -7.59375 -2.75 C -8.3125 -2.675781 -8.960938 -2.378906 -9.546875 -1.859375 C -10.140625 -1.347656 -10.660156 -0.664062 -11.109375 0.1875 C -11.828125 1.53125 -12.085938 2.734375 -11.890625 3.796875 C -11.703125 4.859375 -11.035156 5.695312 -9.890625 6.3125 C -9.085938 6.726562 -8.328125 6.898438 -7.609375 6.828125 C -6.890625 6.753906 -6.222656 6.460938 -5.609375 5.953125 C -5.003906 5.453125 -4.476562 4.78125 -4.03125 3.9375 Z M -4.03125 3.9375 "/></g></g></g><g fill="rgb(0%, 0%, 0%)" fill-opacity="1"><g transform="translate(131.76448, 264.365137)"><g><path d="M -9.859375 5.875 C -10.859375 5.09375 -11.457031 4.3125 -11.65625 3.53125 C -11.863281 2.757812 -11.648438 1.96875 -11.015625 1.15625 C -10.679688 0.738281 -10.320312 0.421875 -9.9375 0.203125 C -9.5625 -0.00390625 -9.148438 -0.113281 -8.703125 -0.125 C -8.265625 -0.144531 -7.800781 -0.0546875 -7.3125 0.140625 C -6.832031 0.347656 -6.328125 0.660156 -5.796875 1.078125 L -4.5 2.09375 L -1.78125 -1.390625 L -1.1875 -0.9375 L -7.78125 7.484375 Z M -9.390625 5.40625 L -7.96875 6.515625 L -4.921875 2.625 L -6.171875 1.640625 C -6.710938 1.222656 -7.222656 0.921875 -7.703125 0.734375 C -8.191406 0.546875 -8.65625 0.515625 -9.09375 0.640625 C -9.539062 0.773438 -9.96875 1.101562 -10.375 1.625 C -10.875 2.269531 -11.039062 2.894531 -10.875 3.5 C -10.71875 4.113281 -10.222656 4.75 -9.390625 5.40625 Z M -9.390625 5.40625 "/></g></g></g><g fill="rgb(0%, 0%, 0%)" fill-opacity="1"><g transform="translate(119.741916, 254.22226)"><g><path d="M -5 -5.40625 L -1.03125 -1.109375 L -8.890625 6.15625 L -12.859375 1.859375 L -12.359375 1.40625 L -8.890625 5.15625 L -5.90625 2.390625 L -9.1875 -1.15625 L -8.6875 -1.625 L -5.40625 1.921875 L -2.03125 -1.1875 L -5.5 -4.9375 Z M -5 -5.40625 "/></g></g></g><g fill="rgb(0%, 0%, 0%)" fill-opacity="1"><g transform="translate(109.795285, 242.679628)"><g><path d="M -11.1875 2.484375 C -11.664062 1.765625 -11.984375 1.117188 -12.140625 0.546875 C -12.304688 -0.015625 -12.285156 -0.53125 -12.078125 -1 C -11.878906 -1.476562 -11.484375 -1.914062 -10.890625 -2.3125 C -10.441406 -2.613281 -10 -2.789062 -9.5625 -2.84375 C -9.125 -2.90625 -8.707031 -2.859375 -8.3125 -2.703125 C -7.914062 -2.554688 -7.535156 -2.328125 -7.171875 -2.015625 L -4.734375 -7.15625 L -4.25 -6.40625 L -6.59375 -1.53125 L -5.125 0.6875 L -1.25 -1.890625 L -0.84375 -1.265625 L -9.765625 4.640625 Z M -10.59375 2.1875 L -9.625 3.65625 L -5.6875 1.046875 L -6.859375 -0.71875 C -7.347656 -1.445312 -7.898438 -1.898438 -8.515625 -2.078125 C -9.140625 -2.253906 -9.78125 -2.125 -10.4375 -1.6875 C -11.15625 -1.21875 -11.507812 -0.675781 -11.5 -0.0625 C -11.488281 0.550781 -11.1875 1.300781 -10.59375 2.1875 Z M -10.59375 2.1875 "/></g></g></g><g fill="rgb(0%, 0%, 0%)" fill-opacity="1"><g transform="translate(135.028846, 219.127882)"><g><path d="M 27.785156 -65.101562 L 27.785156 -64.828125 L 29.78125 -64.828125 L 29.78125 -10.804688 C 29.78125 -7.808594 28.417969 -4.992188 26.238281 -2.996094 C 24.332031 -1.269531 21.882812 -0.273438 19.339844 -0.273438 C 16.796875 -0.273438 14.34375 -1.269531 12.4375 -2.996094 C 10.167969 -4.992188 8.898438 -7.808594 8.808594 -10.804688 L 8.808594 -21.882812 L 3.179688 -21.882812 L 3.179688 -16.253906 C 3.179688 -11.621094 5.175781 -7.261719 8.625 -4.085938 C 11.53125 -1.453125 15.34375 0 19.339844 0.0898438 C 23.242188 0 27.058594 -1.453125 30.054688 -4.085938 C 33.503906 -7.261719 35.5 -11.710938 35.5 -16.433594 L 35.5 -64.828125 L 37.5 -64.828125 L 37.5 -65.101562 Z M 27.785156 -65.101562 "/></g></g></g><g fill="rgb(0%, 0%, 0%)" fill-opacity="1"><g transform="translate(172.058153, 219.127882)"><g><path d="M 52.296875 -4.8125 C 47.394531 -1.90625 41.855469 -0.363281 36.046875 -0.273438 L 35.410156 -0.273438 C 28.328125 -0.363281 21.609375 -3.8125 16.617188 -9.804688 C 11.621094 -15.890625 8.808594 -23.96875 8.808594 -32.59375 C 8.808594 -41.128906 11.621094 -49.210938 16.617188 -55.292969 C 21.609375 -61.378906 28.328125 -64.738281 35.410156 -64.828125 L 36.136719 -64.828125 C 41.675781 -64.738281 47.03125 -62.648438 51.570312 -58.652344 C 56.019531 -54.839844 59.289062 -49.484375 61.105469 -43.308594 L 61.105469 -43.21875 L 66.550781 -43.21875 L 66.460938 -43.398438 C 65.371094 -46.578125 63.828125 -49.484375 61.832031 -52.117188 C 59.925781 -54.75 57.5625 -57.019531 54.929688 -58.925781 C 49.390625 -62.921875 42.855469 -65.101562 36.136719 -65.191406 L 35.410156 -65.191406 C 31.050781 -65.101562 26.785156 -64.191406 22.789062 -62.46875 C 18.976562 -60.832031 15.527344 -58.472656 12.53125 -55.476562 C 9.625 -52.480469 7.261719 -49.03125 5.628906 -45.214844 C 3.996094 -41.222656 3.179688 -36.953125 3.179688 -32.59375 C 3.179688 -28.144531 3.996094 -23.96875 5.628906 -19.976562 C 7.261719 -16.070312 9.625 -12.621094 12.53125 -9.625 C 15.527344 -6.628906 18.976562 -4.265625 22.789062 -2.632812 C 26.785156 -0.90625 31.050781 0 35.410156 0 L 36.136719 0 C 41.855469 0 47.578125 -1.632812 52.480469 -4.539062 C 57.292969 -7.445312 61.285156 -11.53125 64.011719 -16.34375 L 63.828125 -16.523438 C 61.015625 -11.710938 57.109375 -7.71875 52.296875 -4.8125 Z M 52.296875 -4.8125 "/></g></g></g></svg>